<?xml version="1.0" encoding="UTF-8"?><svg id="_层_2" xmlns="http://www.w3.org/2000/svg" viewBox="0 0 48.32 48.32"><defs><style>.cls-1{fill:none;}.cls-2{fill:#f94f56;}.cls-3{fill:#172d72;}</style></defs><g id="_层_1-2"><g><rect class="cls-1" width="48.32" height="48.32"/><g><path class="cls-2" d="M12.11,33.7H28.61v4.71H12.11v-4.71Zm0-9.43h23.57v4.71H12.11v-4.71Zm0-9.43h23.57v4.71H12.11v-4.71Z"/><path class="cls-3" d="M40.39,5.42h-9.9c-.94-2.83-3.53-4.71-6.6-4.71s-5.66,1.89-6.6,4.71H6.46c-.94,.24-1.65,.71-2.36,1.41-.47,.47-.71,.94-.94,1.41s-.47,1.18-.47,1.89V43.13c0,.71,.24,1.18,.47,1.89,.24,.47,.47,.94,.94,1.41,.71,.71,1.41,1.18,2.36,1.18H40.39c2.59,0,4.71-2.12,4.71-4.71V9.9c0-2.36-2.12-4.48-4.71-4.48h0Zm-16.5-.71c.94,0,1.89,.71,1.89,1.89,0,.94-.71,1.89-1.89,1.89s-1.89-.71-1.89-1.89c0-.94,.94-1.89,1.89-1.89Zm16.5,38.41H7.4V10.14H40.39V43.13Z"/></g></g></g></svg>