<svg viewBox="0 0 10 10" fill="none" xmlns="http://www.w3.org/2000/svg">
    <path d="M7.115 8L5 6.725L2.885 8L3.445 5.595L1.58 3.98L4.04 3.77L5 1.5L5.96 3.765L8.42 3.975L6.555 5.59L7.115 8ZM5 0C2.235 0 0 2.25 0 5C0 6.32608 0.526784 7.59785 1.46447 8.53553C1.92876 8.99983 2.47995 9.36812 3.08658 9.6194C3.69321 9.87067 4.34339 10 5 10C6.32608 10 7.59785 9.47322 8.53553 8.53553C9.47322 7.59785 10 6.32608 10 5C10 4.34339 9.87067 3.69321 9.6194 3.08658C9.36812 2.47995 8.99983 1.92876 8.53553 1.46447C8.07124 1.00017 7.52005 0.631876 6.91342 0.380602C6.30679 0.129329 5.65661 0 5 0Z" fill="#FDE048"/>
</svg>
