<?xml version="1.0" encoding="UTF-8"?><svg id="_层_2" xmlns="http://www.w3.org/2000/svg" viewBox="0 0 48.32 48.32"><defs><style>.cls-1,.cls-2{fill:none;}.cls-3{fill:#172d72;}.cls-2{stroke:#f94f56;stroke-linecap:round;stroke-linejoin:round;stroke-width:2.83px;}.cls-4{fill:#fff;stroke:#172d72;stroke-miterlimit:10;stroke-width:3px;}</style></defs><g id="_层_1-2"><g><rect class="cls-1" width="48.32" height="48.32"/><g><path class="cls-3" d="M28.11,19.74c2.49-1.96,4.08-5,4.08-8.41,0-5.92-4.8-10.71-10.71-10.71S10.77,5.4,10.77,11.32c0,3.41,1.6,6.45,4.08,8.41-6.58,2.63-11.22,9.06-11.22,16.58v5.36c0,.99,.8,1.79,1.79,1.79H37.55c.99,0,1.79-.8,1.79-1.79v-5.36c0-7.52-4.65-13.95-11.22-16.58h0ZM14.34,11.32c0-3.94,3.2-7.14,7.14-7.14s7.14,3.2,7.14,7.14-3.2,7.14-7.14,7.14-7.14-3.2-7.14-7.14h0Zm21.43,26.78c0,.99-.8,1.79-1.79,1.79H8.99c-.99,0-1.79-.8-1.79-1.79v-1.79c0-7.89,6.4-14.28,14.28-14.28s14.28,6.4,14.28,14.28v1.79h0Z"/><circle class="cls-4" cx="35.27" cy="36.61" r="9.42"/><polyline class="cls-2" points="31.45 33.39 35.27 41.03 39.09 33.39"/></g></g></g></svg>