<svg viewBox="0 0 15 15" fill="none" xmlns="http://www.w3.org/2000/svg">
    <circle cx="7.5" cy="7.5" r="7.5" fill="#FFEBD9"/>
    <path d="M7.8885 5.24L7.689 6.20333C7.647 6.4 7.703 6.60333 7.836 6.75667C7.969 6.91 8.165 7 8.375 7H10.3V7.36L9.4005 9.33333H6.569C6.506 9.33333 6.45 9.28 6.45 9.22V6.60667L7.8885 5.24ZM8.2 4L5.9565 6.13667C5.8235 6.26333 5.75 6.43333 5.75 6.61V9.22C5.75 9.65 6.1175 10 6.569 10H9.404C9.6525 10 9.88 9.87667 10.006 9.67667L10.9405 7.62667C10.979 7.54333 11 7.45333 11 7.36V7C11 6.63333 10.685 6.33333 10.3 6.33333H8.375L8.697 4.78333C8.7145 4.71 8.704 4.63 8.669 4.56333C8.5885 4.41333 8.487 4.27667 8.361 4.15667L8.2 4ZM4.7 6.33333H4V10H4.7C4.8925 10 5.05 9.85 5.05 9.66667V6.66667C5.05 6.48333 4.8925 6.33333 4.7 6.33333Z" fill="#FF6B00"/>
</svg>
