<svg viewBox="0 0 15 15" fill="none" xmlns="http://www.w3.org/2000/svg">
    <circle cx="7.5" cy="7.5" r="7.5" fill="#FFF4D9"/>
    <path d="M9.57594 7.33553L10.0091 6.92105C10.1603 6.77632 10.3528 6.69737 10.5625 6.67763V6.34868L8.5 4.375H5.0625C4.68094 4.375 4.375 4.66776 4.375 5.03289V9.63816C4.375 10 4.68094 10.2961 5.0625 10.2961H7.125V9.68092L7.16969 9.63816H5.0625V5.03289H7.46875V7.33553H9.57594ZM8.15625 4.86842L10.0469 6.67763H8.15625V4.86842ZM9.91969 7.9375L10.6209 8.60855L8.51375 10.625H7.8125V9.95395L9.91969 7.9375ZM11.1984 8.05592L10.8616 8.37829L10.1603 7.70724L10.4972 7.38487C10.5625 7.31908 10.6759 7.31908 10.7447 7.38487L11.1984 7.81908C11.2672 7.88487 11.2672 7.99342 11.1984 8.05592Z" fill="#FFB800"/>
</svg>
