<svg viewBox="0 0 15 15" fill="none" xmlns="http://www.w3.org/2000/svg">
    <circle cx="7.5" cy="7.5" r="7.5" fill="#FFE0D6"/>
    <rect x="3.15" y="5.15" width="8.7" height="4.7" rx="0.85" stroke="#A30000" stroke-width="0.3"/>
    <path d="M4.672 6.508V7.44H5.688V7.74H4.672V8.7H5.808V9H4.308V6.208H5.808V6.508H4.672ZM7.49878 7.608L8.35478 9H7.94278L7.27478 7.912L6.63878 9H6.23478L7.08678 7.608L6.23078 6.212H6.63878L7.31078 7.304L7.95078 6.212H8.35878L7.49878 7.608ZM10.7072 7.028C10.7072 7.26 10.6272 7.45333 10.4672 7.608C10.3098 7.76 10.0685 7.836 9.74316 7.836H9.20716V9H8.84316V6.212H9.74316C10.0578 6.212 10.2965 6.288 10.4592 6.44C10.6245 6.592 10.7072 6.788 10.7072 7.028ZM9.74316 7.536C9.94582 7.536 10.0952 7.492 10.1912 7.404C10.2872 7.316 10.3352 7.19067 10.3352 7.028C10.3352 6.684 10.1378 6.512 9.74316 6.512H9.20716V7.536H9.74316Z" fill="#BE1D32"/>
</svg>
